<svg xmlns="http://www.w3.org/2000/svg" width="30" height="30" viewBox="0 0 30 30" fill="none">
  <g clip-path="url(#clip0_64_15)">
    <path fill-rule="evenodd" clip-rule="evenodd" d="M15.0028 0C6.72188 0 0.00750732 6.71437 0.00750732 14.9972C0.00750732 21.6225 4.30313 27.2438 10.2638 29.2275C11.0138 29.3644 11.25 28.92 11.25 28.5225C11.25 28.1662 11.2575 27.1706 11.25 25.9191C7.07907 26.8256 6.2147 23.9438 6.2147 23.9438C5.53313 22.2113 4.55063 21.75 4.55063 21.75C3.18938 20.82 4.65282 20.8378 4.65282 20.8378C6.15751 20.9437 6.95063 22.3837 6.95063 22.3837C8.28845 24.6741 10.4597 24.0122 11.3138 23.6297C11.4506 22.6603 11.8388 21.9994 12.2672 21.6244C8.9372 21.2456 5.43657 19.9594 5.43657 14.2125C5.43657 12.5747 6.02063 11.2369 6.9797 10.1888C6.82501 9.81 6.30938 8.28469 7.12688 6.21937C7.12688 6.21937 8.38595 5.81625 11.25 7.75781C12.4463 7.425 13.7297 7.25906 15.0047 7.25344C16.2788 7.25906 17.5613 7.425 18.7594 7.75781C21.6234 5.81719 22.8806 6.21937 22.8806 6.21937C23.6981 8.28469 23.1834 9.81 23.0297 10.1888C23.9888 11.2369 24.5709 12.5747 24.5709 14.2125C24.5709 19.9744 21.0647 21.2419 17.7234 21.6122C18.2616 22.0762 18.75 22.9763 18.75 24.375C18.75 26.25 18.75 28.0331 18.75 28.5262C18.75 28.9275 18.9919 29.3709 19.7531 29.2256C25.7081 27.2391 30 21.6206 30 14.9972C30 6.71437 23.2856 0 15.0028 0Z" fill="white" fill-opacity="0.1"/>
  </g>
  <defs>
    <clipPath id="clip0_64_15">
      <rect width="30" height="30" fill="white"/>
    </clipPath>
  </defs>
</svg>