<svg xmlns="http://www.w3.org/2000/svg" width="30" height="30" viewBox="0 0 30 30" fill="none">
  <path d="M14.9207 8.83598C11.217 8.83598 8.14819 11.8519 8.14819 15.6085C8.14819 19.3651 11.1641 22.381 14.9207 22.381C18.6773 22.381 21.6932 19.3122 21.6932 15.6085C21.6932 11.9048 18.6244 8.83598 14.9207 8.83598ZM14.9207 19.9471C12.5397 19.9471 10.5821 17.9894 10.5821 15.6085C10.5821 13.2275 12.5397 11.2698 14.9207 11.2698C17.3016 11.2698 19.2593 13.2275 19.2593 15.6085C19.2593 17.9894 17.3016 19.9471 14.9207 19.9471Z" fill="white" fill-opacity="0.1"/>
  <path d="M21.9577 10.2117C22.8052 10.2117 23.4921 9.52468 23.4921 8.67726C23.4921 7.82984 22.8052 7.14287 21.9577 7.14287C21.1103 7.14287 20.4233 7.82984 20.4233 8.67726C20.4233 9.52468 21.1103 10.2117 21.9577 10.2117Z" fill="white" fill-opacity="0.1"/>
  <path d="M25.9259 4.709C24.5503 3.28043 22.5926 2.53969 20.3704 2.53969H9.47091C4.86773 2.53969 1.79895 5.60847 1.79895 10.2116V21.0582C1.79895 23.3333 2.53969 25.291 4.02117 26.7196C5.44974 28.0952 7.35451 28.7831 9.52382 28.7831H20.3175C22.5926 28.7831 24.4974 28.0423 25.873 26.7196C27.3016 25.3439 28.0423 23.3863 28.0423 21.1111V10.2116C28.0423 7.98942 27.3016 6.08466 25.9259 4.709ZM25.7143 21.1111C25.7143 22.7513 25.1323 24.0741 24.1799 24.9736C23.2275 25.873 21.9048 26.3492 20.3175 26.3492H9.52382C7.93652 26.3492 6.61376 25.873 5.66138 24.9736C4.709 24.0212 4.23281 22.6984 4.23281 21.0582V10.2116C4.23281 8.62434 4.709 7.30159 5.66138 6.34921C6.56085 5.44974 7.93652 4.97355 9.52382 4.97355H20.4233C22.0106 4.97355 23.3333 5.44974 24.2857 6.40212C25.1852 7.3545 25.7143 8.67725 25.7143 10.2116V21.1111Z" fill="white" fill-opacity="0.1"/>
</svg>