<svg xmlns="http://www.w3.org/2000/svg" width="30" height="30" viewBox="0 0 30 30" fill="none">
  <path d="M3.00738 10.8896H8.28147V26.7611H3.00738V10.8896ZM5.67973 3.23894C3.87463 3.23894 2.69531 4.424 2.69531 5.97943C2.69531 7.50287 3.84012 8.72238 5.6107 8.72238H5.64434C7.48395 8.72238 8.62957 7.50281 8.62957 5.97943C8.59506 4.424 7.484 3.23894 5.67973 3.23894ZM21.2308 10.5168C18.4312 10.5168 17.1771 12.0567 16.4774 13.1365V10.8896H11.2017C11.2716 12.3786 11.2017 26.7611 11.2017 26.7611H16.4774V17.8973C16.4774 17.4226 16.5119 16.9496 16.6507 16.6096C17.0327 15.6619 17.9007 14.6805 19.3567 14.6805C21.267 14.6805 22.0298 16.1366 22.0298 18.2692V26.761H27.3047V17.66C27.3047 12.7851 24.703 10.5168 21.2308 10.5168Z" fill="white" fill-opacity="0.1"/>
</svg>