<svg width="24" height="24" viewBox="0 0 24 24" fill="none" xmlns="http://www.w3.org/2000/svg">
<path d="M16.905 8.04354C17.9129 7.03182 19.5201 6.98067 20.5886 7.89226L20.7447 8.03621L20.8965 8.20013C21.7655 9.21839 21.7655 10.7239 20.8965 11.7421L20.752 11.8987L12.5004 20.1818C12.3144 20.3686 12.0903 20.5116 11.8442 20.6017L11.6559 20.6592L7.95324 21.5716C7.54632 21.6718 7.17667 21.3374 7.2114 20.9396L7.22871 20.8391L8.17909 17.1541C8.24313 16.9058 8.35928 16.6748 8.51901 16.4761L8.64684 16.3333L16.905 8.04354ZM7.70942 2.6744L7.75968 2.77572L11.338 11.9305L10.4116 12.8605L9.60519 10.7977H4.80879L3.55976 14.0135C3.45302 14.2879 3.16641 14.4394 2.88712 14.3852L2.78311 14.3552C2.50857 14.2484 2.35718 13.9619 2.41126 13.6825L2.44135 13.5786L6.64162 2.77668C6.82563 2.30349 7.46032 2.26916 7.70942 2.6744ZM7.20112 4.64505L5.27559 9.59774H9.13719L7.20112 4.64505Z" fill="#212121"/>
</svg>
