<svg width="48" height="48" viewBox="0 0 48 48" fill="none" xmlns="http://www.w3.org/2000/svg">
<path d="M37.5055 40.926H29.7474H27.6584H27.2072V30.5198H30.6105C31.4736 30.5198 31.9837 29.539 31.4736 28.8329L24.8533 19.6723C24.4315 19.0838 23.5586 19.0838 23.1369 19.6723L16.5166 28.8329C16.0065 29.539 16.5067 30.5198 17.3796 30.5198H20.783V40.926H20.3318H18.2427H9.24888C4.09971 40.6416 0 35.8259 0 30.6081C0 27.0086 1.95178 23.87 4.84512 22.1733C4.5803 21.4573 4.44299 20.6923 4.44299 19.888C4.44299 16.2101 7.41479 13.2383 11.0928 13.2383C11.8872 13.2383 12.6522 13.3756 13.3682 13.6404C15.4965 9.12873 20.0866 6 25.4221 6C32.3269 6.00981 38.0155 11.2963 38.6629 18.0343C43.9689 18.9465 48 23.8602 48 29.4213C48 35.3649 43.3707 40.5141 37.5055 40.926Z" fill="#1B1B1B"/>
</svg>
